<svg width="42" height="28" viewBox="0 0 42 28" fill="none" xmlns="http://www.w3.org/2000/svg">
    <path d="M3.55078 5.53516C3.55078 5.28516 3.46224 5.09245 3.28516 4.95703C3.11068 4.82161 2.79427 4.6849 2.33594 4.54688C1.8776 4.40885 1.51302 4.25521 1.24219 4.08594C0.723958 3.76042 0.464844 3.33594 0.464844 2.8125C0.464844 2.35417 0.651042 1.97656 1.02344 1.67969C1.39844 1.38281 1.88411 1.23438 2.48047 1.23438C2.8763 1.23438 3.22917 1.30729 3.53906 1.45312C3.84896 1.59896 4.09245 1.80729 4.26953 2.07812C4.44661 2.34635 4.53516 2.64453 4.53516 2.97266H3.55078C3.55078 2.67578 3.45703 2.44401 3.26953 2.27734C3.08464 2.10807 2.81901 2.02344 2.47266 2.02344C2.14974 2.02344 1.89844 2.09245 1.71875 2.23047C1.54167 2.36849 1.45312 2.5612 1.45312 2.80859C1.45312 3.01693 1.54948 3.19141 1.74219 3.33203C1.9349 3.47005 2.2526 3.60547 2.69531 3.73828C3.13802 3.86849 3.49349 4.01823 3.76172 4.1875C4.02995 4.35417 4.22656 4.54688 4.35156 4.76562C4.47656 4.98177 4.53906 5.23568 4.53906 5.52734C4.53906 6.0013 4.35677 6.37891 3.99219 6.66016C3.63021 6.9388 3.13802 7.07812 2.51562 7.07812C2.10417 7.07812 1.72526 7.0026 1.37891 6.85156C1.03516 6.69792 0.766927 6.48698 0.574219 6.21875C0.384115 5.95052 0.289062 5.63802 0.289062 5.28125H1.27734C1.27734 5.60417 1.38411 5.85417 1.59766 6.03125C1.8112 6.20833 2.11719 6.29688 2.51562 6.29688C2.85938 6.29688 3.11719 6.22786 3.28906 6.08984C3.46354 5.94922 3.55078 5.76432 3.55078 5.53516ZM6.32422 7H5.375V2.77344H6.32422V7ZM5.31641 1.67578C5.31641 1.52995 5.36198 1.40885 5.45312 1.3125C5.54688 1.21615 5.67969 1.16797 5.85156 1.16797C6.02344 1.16797 6.15625 1.21615 6.25 1.3125C6.34375 1.40885 6.39062 1.52995 6.39062 1.67578C6.39062 1.81901 6.34375 1.9388 6.25 2.03516C6.15625 2.12891 6.02344 2.17578 5.85156 2.17578C5.67969 2.17578 5.54688 2.12891 5.45312 2.03516C5.36198 1.9388 5.31641 1.81901 5.31641 1.67578ZM8.25391 2.77344L8.28125 3.21484C8.57812 2.86849 8.98438 2.69531 9.5 2.69531C10.0651 2.69531 10.4518 2.91146 10.6602 3.34375C10.9674 2.91146 11.3997 2.69531 11.957 2.69531C12.4232 2.69531 12.7695 2.82422 12.9961 3.08203C13.2253 3.33984 13.3424 3.72005 13.3477 4.22266V7H12.3984V4.25C12.3984 3.98177 12.3398 3.78516 12.2227 3.66016C12.1055 3.53516 11.9115 3.47266 11.6406 3.47266C11.4245 3.47266 11.2474 3.53125 11.1094 3.64844C10.974 3.76302 10.8789 3.91406 10.8242 4.10156L10.8281 7H9.87891V4.21875C9.86589 3.72135 9.61198 3.47266 9.11719 3.47266C8.73698 3.47266 8.46745 3.6276 8.30859 3.9375V7H7.35938V2.77344H8.25391ZM18.0234 4.92969C18.0234 5.58333 17.875 6.10547 17.5781 6.49609C17.2812 6.88411 16.8828 7.07812 16.3828 7.07812C15.9193 7.07812 15.5482 6.92578 15.2695 6.62109V8.625H14.3203V2.77344H15.1953L15.2344 3.20312C15.513 2.86458 15.8919 2.69531 16.3711 2.69531C16.8867 2.69531 17.2904 2.88802 17.582 3.27344C17.8763 3.65625 18.0234 4.1888 18.0234 4.87109V4.92969ZM17.0781 4.84766C17.0781 4.42578 16.9935 4.09115 16.8242 3.84375C16.6576 3.59635 16.418 3.47266 16.1055 3.47266C15.7174 3.47266 15.4388 3.63281 15.2695 3.95312V5.82812C15.4414 6.15625 15.7227 6.32031 16.1133 6.32031C16.4154 6.32031 16.651 6.19922 16.8203 5.95703C16.9922 5.71224 17.0781 5.34245 17.0781 4.84766ZM19.8398 7H18.8906V1H19.8398V7ZM22.3555 5.64062L23.2148 2.77344H24.2266L22.5469 7.64062C22.2891 8.35156 21.8516 8.70703 21.2344 8.70703C21.0964 8.70703 20.944 8.68359 20.7773 8.63672V7.90234L20.957 7.91406C21.1966 7.91406 21.3763 7.86979 21.4961 7.78125C21.6185 7.69531 21.7148 7.54948 21.7852 7.34375L21.9219 6.98047L20.4375 2.77344H21.4609L22.3555 5.64062ZM30.4805 5.69141L31.1523 2.77344H32.0781L30.9258 7H30.1445L29.2383 4.09766L28.3477 7H27.5664L26.4102 2.77344H27.3359L28.0195 5.66016L28.8867 2.77344H29.6016L30.4805 5.69141ZM33.7227 7H32.7734V2.77344H33.7227V7ZM32.7148 1.67578C32.7148 1.52995 32.7604 1.40885 32.8516 1.3125C32.9453 1.21615 33.0781 1.16797 33.25 1.16797C33.4219 1.16797 33.5547 1.21615 33.6484 1.3125C33.7422 1.40885 33.7891 1.52995 33.7891 1.67578C33.7891 1.81901 33.7422 1.9388 33.6484 2.03516C33.5547 2.12891 33.4219 2.17578 33.25 2.17578C33.0781 2.17578 32.9453 2.12891 32.8516 2.03516C32.7604 1.9388 32.7148 1.81901 32.7148 1.67578ZM35.9492 1.74609V2.77344H36.6953V3.47656H35.9492V5.83594C35.9492 5.9974 35.9805 6.11458 36.043 6.1875C36.1081 6.25781 36.2227 6.29297 36.3867 6.29297C36.4961 6.29297 36.6068 6.27995 36.7188 6.25391V6.98828C36.5026 7.04818 36.2943 7.07812 36.0938 7.07812C35.3646 7.07812 35 6.67578 35 5.87109V3.47656H34.3047V2.77344H35V1.74609H35.9492ZM38.3594 3.23438C38.6693 2.875 39.0612 2.69531 39.5352 2.69531C40.4362 2.69531 40.8932 3.20964 40.9062 4.23828V7H39.957V4.27344C39.957 3.98177 39.8932 3.77604 39.7656 3.65625C39.6406 3.53385 39.4557 3.47266 39.2109 3.47266C38.8307 3.47266 38.5469 3.64193 38.3594 3.98047V7H37.4102V1H38.3594V3.23438Z"
          fill="#ADADAD"/>
    <path d="M9.41968 11.9507V22.1808L13.5197 27.5579V11.9507H9.41968Z" fill="#ADADAD"/>
    <path d="M18.9523 22.1808H7.10328C3.18776 22.1808 0 18.9833 0 15.0558V9L4.10002 11.4161V15.066C4.10002 16.7213 5.44277 18.0785 7.10328 18.0785H13.5301L18.9523 22.1808Z"
          fill="#ADADAD"/>
    <path d="M29.2951 26.4064C28.3213 26.684 27.1631 26.8177 25.8203 26.8177C24.0471 26.8177 22.6428 26.3241 21.5973 25.3371C20.5518 24.3501 20.0393 23.0238 20.0393 21.3788C20.0393 20.2889 20.2648 19.3225 20.7158 18.4897C21.1668 17.6775 21.7613 17.04 22.4788 16.5979C23.2066 16.1558 23.9958 15.9296 24.8671 15.9296C26.4251 15.9296 27.6243 16.4129 28.4751 17.369C29.3258 18.3355 29.7461 19.6618 29.7461 21.3685V22.3761H22.6633C22.8068 23.9594 23.9753 24.7408 26.1688 24.7408C27.5423 24.7408 28.5878 24.6483 29.2951 24.4735V26.4064ZM24.9286 17.9653C24.3341 17.9653 23.8216 18.2018 23.4116 18.685C22.9913 19.1683 22.7658 19.7852 22.7351 20.546H27.1836C27.1836 19.7338 26.9888 19.0963 26.5891 18.6439C26.1893 18.1915 25.6358 17.9653 24.9286 17.9653Z"
          fill="#ADADAD"/>
    <path d="M33.4561 12.691V26.5504H30.8525V12.691H33.4561ZM37.6586 16.0942H40.8053L36.7873 20.8031L41.0001 26.5504H37.8533L33.7226 20.8031L37.6586 16.0942Z"
          fill="#ADADAD"/>
</svg>
