<svg width="91" height="27" viewBox="0 0 91 27" fill="none" xmlns="http://www.w3.org/2000/svg">
    <path d="M0.117641 6.18542H4.57576V20.3906H0.117641V6.18542ZM4.72523 2.23666C4.72523 3.45637 3.78617 4.44436 2.31746 4.44436C0.910485 4.44436 -0.0285801 3.45637 0.000664144 2.23666C-0.0285801 0.959031 0.910485 0 2.3467 0C3.78292 0 4.69273 0.959031 4.72523 2.23666Z"
          fill="#ADADAD"/>
    <path d="M53.4106 18.0283C53.4106 16.4546 54.4992 15.3154 56.0622 15.3154C57.625 15.3154 58.6842 16.4257 58.6842 18.0283C58.6842 19.5763 57.6218 20.7123 56.0329 20.7123C54.4992 20.7123 53.4106 19.5763 53.4106 18.0283Z"
          fill="#ADADAD"/>
    <path d="M12.5467 9.91523C12.9302 10.0021 13.4013 10.0343 14.048 10.0343C16.4362 10.0343 17.9082 8.83712 17.9082 6.82572C17.9082 5.01709 16.6409 3.93898 14.4021 3.93898C13.4891 3.93898 12.8717 4.02588 12.5467 4.11278V9.91523ZM8.09839 0.987877C9.4826 0.752946 11.429 0.579163 14.1682 0.579163C16.9366 0.579163 18.9122 1.10373 20.238 2.15609C21.5052 3.14729 22.3598 4.78216 22.3598 6.70987C22.3598 8.63438 21.7099 10.2692 20.5337 11.3795C19 12.8084 16.7352 13.452 14.0804 13.452C13.4923 13.452 12.9594 13.4231 12.5467 13.3651V20.397H8.09839V0.987877Z"
          fill="#ADADAD"/>
    <path d="M32.1984 13.6517C29.8428 13.6227 28.0166 14.1762 28.0166 15.898C28.0166 17.034 28.7835 17.5907 29.7843 17.5907C30.9021 17.5907 31.8184 16.8634 32.1109 15.9591C32.1695 15.7274 32.1984 15.4635 32.1984 15.1996V13.6517ZM32.7281 20.3906L32.4617 18.9617H32.3741C31.4317 20.101 29.9565 20.7124 28.2506 20.7124C25.3327 20.7124 23.5942 18.6141 23.5942 16.3356C23.5942 12.6315 26.9541 10.8518 32.0492 10.8807V10.678C32.0492 9.91852 31.6364 8.84041 29.4269 8.84041C27.9549 8.84041 26.3919 9.336 25.4496 9.92171L24.6243 7.06393C25.6251 6.50718 27.6007 5.80884 30.2229 5.80884C35.0254 5.80884 36.556 8.6119 36.556 11.9653V16.9278C36.556 18.2988 36.6143 19.6118 36.7607 20.4003H32.7281V20.3906Z"
          fill="#ADADAD"/>
    <path d="M43.1002 6.12433L45.2515 13.1272C45.4854 13.9736 45.7811 15.0227 45.9565 15.7822H46.0444C46.249 15.0227 46.4861 13.9446 46.6908 13.1272L48.4585 6.12433H53.2611L49.9045 15.5183C47.8411 21.1792 46.4568 23.4544 44.8355 24.8833C43.2759 26.2253 41.625 26.692 40.5041 26.84L39.5619 23.0779C40.1205 22.991 40.829 22.7271 41.5051 22.3184C42.1808 21.9676 42.9182 21.2693 43.3603 20.5387C43.5064 20.336 43.5943 20.1011 43.5943 19.8983C43.5943 19.7535 43.565 19.5186 43.3861 19.1678L38.1125 6.12433H43.1002Z"
          fill="#ADADAD"/>
    <path d="M74.9766 15.8112C74.9766 17.6778 75.0351 19.1967 75.0934 20.3907H71.204L70.9993 18.3793H70.9115C70.3526 19.2547 68.9976 20.7125 66.4015 20.7125C63.4866 20.7125 61.3357 18.9039 61.3357 14.4981V6.12433H65.8426V13.7998C65.8426 15.8723 66.5217 17.1242 68.0813 17.1242C69.3194 17.1242 70.0245 16.2778 70.3201 15.5795C70.4373 15.3156 70.4662 14.968 70.4662 14.6172V6.12433H74.9731V15.8112H74.9766Z"
          fill="#ADADAD"/>
    <path d="M86.2293 13.6517C83.8703 13.6227 82.0443 14.1762 82.0443 15.898C82.0443 17.034 82.811 17.5907 83.8117 17.5907C84.933 17.5907 85.8458 16.8634 86.1383 15.9591C86.1969 15.7274 86.2293 15.4635 86.2293 15.1996V13.6517ZM86.7621 20.3906L86.4957 18.9617H86.4082C85.4658 20.101 83.9937 20.7124 82.2846 20.7124C79.3666 20.7124 77.6316 18.6141 77.6316 16.3356C77.6316 12.6315 80.9882 10.8518 86.0864 10.8807V10.678C86.0864 9.91852 85.6736 8.84041 83.4641 8.84041C81.9923 8.84041 80.4293 9.336 79.4869 9.92171L78.6616 7.06393C79.6626 6.50718 81.6381 5.80884 84.2569 5.80884C89.0595 5.80884 90.5901 8.6119 90.5901 11.9653V16.9278C90.5901 18.2988 90.6483 19.6118 90.7948 20.4003H86.7621V20.3906Z"
          fill="#ADADAD"/>
</svg>
