<svg width="118" height="27" viewBox="0 0 118 27" fill="none" xmlns="http://www.w3.org/2000/svg">
    <path d="M50.0467 22.9382V18.7121C50.0467 17.1203 49.0291 16.0497 47.3896 16.0356C46.9225 16.0053 46.4558 16.1004 46.0382 16.311C45.6206 16.5216 45.2673 16.84 45.0151 17.233C44.7853 16.8517 44.4566 16.5392 44.0636 16.3285C43.6705 16.1178 43.2278 16.0166 42.7819 16.0356C42.3933 16.0161 42.0063 16.0982 41.6592 16.2736C41.3122 16.449 41.0171 16.7118 40.8032 17.0358V16.2046H39.3333V22.9382H40.8173V19.2051C40.8173 18.0359 41.4675 17.4162 42.471 17.4162C43.4462 17.4162 43.9409 18.05 43.9409 19.1911V22.9382H45.425V19.2051C45.425 18.0359 46.1034 17.4162 47.0786 17.4162C48.0821 17.4162 48.5627 18.05 48.5627 19.1911V22.9382H50.0467ZM72.0107 16.2046H69.608V14.1621H68.124V16.2046H66.7529V17.5429H68.124V20.6138C68.124 22.1775 68.7317 23.1073 70.4701 23.1073C71.1196 23.1092 71.7564 22.9285 72.3075 22.586L71.8836 21.3323C71.4894 21.5666 71.042 21.6975 70.5832 21.7126C69.8482 21.7126 69.608 21.2618 69.608 20.5857V17.5429H72.0107V16.2046ZM84.5475 16.0356C84.1891 16.025 83.8345 16.1111 83.5211 16.2846C83.2076 16.4582 82.947 16.7128 82.7667 17.0217V16.2046H81.3108V22.9382H82.7807V19.1628C82.7807 18.05 83.2613 17.4302 84.2225 17.4302C84.5369 17.4259 84.8491 17.4833 85.1412 17.5993L85.5934 16.2187C85.2577 16.099 84.904 16.037 84.5475 16.0356ZM65.594 16.74C64.762 16.2469 63.8053 16.0024 62.8379 16.0356C61.1276 16.0356 60.0252 16.8526 60.0252 18.1908C60.0252 19.2897 60.845 19.9659 62.3572 20.1772L63.0499 20.2758C63.8554 20.3884 64.2371 20.5997 64.2371 20.9801C64.2371 21.5013 63.6999 21.7971 62.6965 21.7971C61.8893 21.8202 61.0978 21.5722 60.4491 21.0928L59.7567 22.2337C60.6128 22.8298 61.6384 23.136 62.6824 23.1073C64.6328 23.1073 65.7635 22.1915 65.7635 20.9096C65.7635 19.7263 64.8731 19.1065 63.4032 18.8952L62.7107 18.7966C62.0746 18.7121 61.5658 18.5854 61.5658 18.1346C61.5658 17.6415 62.0463 17.3457 62.852 17.3457C63.5918 17.3568 64.3166 17.5556 64.9579 17.9233L65.594 16.74ZM104.971 16.0356C104.613 16.025 104.258 16.1111 103.945 16.2846C103.631 16.4582 103.37 16.7128 103.19 17.0217V16.2046H101.734V22.9382H103.204V19.1628C103.204 18.05 103.685 17.4302 104.646 17.4302C104.96 17.4259 105.272 17.4833 105.565 17.5993L106.017 16.2187C105.681 16.099 105.327 16.037 104.971 16.0356ZM86.0315 19.5714C86.0315 21.614 87.4591 23.1073 89.6358 23.1073C90.5182 23.1514 91.3854 22.865 92.0667 22.3042L91.36 21.1209C90.8518 21.507 90.2322 21.7194 89.5933 21.7266C88.4202 21.7126 87.558 20.8674 87.558 19.5714C87.558 18.2754 88.4202 17.4302 89.5933 17.4162C90.2322 17.4234 90.8518 17.6358 91.36 18.0219L92.0667 16.8386C91.3854 16.2778 90.5182 15.9914 89.6358 16.0356C87.4591 16.0356 86.0315 17.5288 86.0315 19.5714ZM99.7979 19.5714V16.2046H98.3281V17.0217C98.0771 16.6994 97.7524 16.4417 97.3811 16.2702C97.0098 16.0986 96.6027 16.0182 96.1938 16.0356C94.2999 16.0356 92.8158 17.5148 92.8158 19.5714C92.8158 21.628 94.2999 23.1073 96.1938 23.1073C96.6027 23.1247 97.0098 23.0442 97.3811 22.8727C97.7524 22.7011 98.0771 22.4434 98.3281 22.1212V22.9382H99.7979V19.5714ZM94.3281 19.5714C94.3281 18.3881 95.1054 17.4162 96.3776 17.4162C97.593 17.4162 98.4128 18.3458 98.4128 19.5714C98.4128 20.7969 97.593 21.7266 96.3776 21.7266C95.1054 21.7266 94.3281 20.7547 94.3281 19.5714ZM76.5902 16.0356C74.6114 16.0356 73.2263 17.4724 73.2263 19.5714C73.2263 21.7126 74.6679 23.1073 76.6891 23.1073C77.6975 23.1425 78.6836 22.8065 79.4593 22.1634L78.7385 21.0787C78.1803 21.5245 77.4891 21.7723 76.7739 21.783C75.8268 21.783 74.9647 21.3464 74.7527 20.1348H79.7703C79.7844 19.9517 79.7985 19.7687 79.7985 19.5714C79.7844 17.4724 78.4841 16.0356 76.5902 16.0356ZM76.5618 17.3457C77.5089 17.3457 78.1166 17.9373 78.2721 18.9798H74.7669C74.9223 18.0078 75.5159 17.3457 76.5618 17.3457ZM113.437 19.5714V13.5H111.967V17.0217C111.716 16.6994 111.392 16.4417 111.02 16.2702C110.649 16.0986 110.242 16.0182 109.833 16.0356C107.939 16.0356 106.455 17.5148 106.455 19.5714C106.455 21.628 107.939 23.1073 109.833 23.1073C110.242 23.1247 110.649 23.0442 111.02 22.8726C111.392 22.7011 111.716 22.4434 111.967 22.1212V22.9382H113.437V19.5714ZM115.155 22.3168C115.213 22.3164 115.271 22.3278 115.325 22.3503C115.376 22.3718 115.424 22.4029 115.464 22.442C115.503 22.4809 115.535 22.5272 115.557 22.5782C115.58 22.6305 115.591 22.6869 115.591 22.7439C115.591 22.8009 115.58 22.8573 115.557 22.9096C115.535 22.9604 115.503 23.0064 115.464 23.0453C115.423 23.0843 115.376 23.1156 115.325 23.1374C115.271 23.1603 115.213 23.1719 115.155 23.1715C115.069 23.1724 114.985 23.148 114.913 23.1014C114.841 23.0548 114.784 22.9881 114.75 22.9096C114.727 22.8573 114.716 22.8009 114.716 22.7439C114.716 22.6869 114.727 22.6305 114.75 22.5782C114.794 22.4747 114.878 22.3929 114.982 22.3503C115.037 22.3278 115.096 22.3164 115.155 22.3168ZM115.155 23.0772C115.199 23.0775 115.244 23.0686 115.284 23.051C115.324 23.0341 115.359 23.0099 115.389 22.9798C115.452 22.917 115.487 22.8324 115.487 22.7441C115.487 22.6558 115.452 22.5711 115.389 22.5084C115.359 22.4784 115.324 22.4544 115.284 22.4378C115.243 22.4205 115.199 22.4117 115.155 22.4121C115.11 22.4118 115.065 22.4205 115.023 22.4378C114.973 22.4591 114.929 22.4924 114.894 22.5347C114.86 22.5771 114.836 22.6272 114.826 22.6806C114.815 22.7341 114.818 22.7893 114.834 22.8415C114.85 22.8936 114.878 22.9411 114.916 22.9798C114.947 23.0101 114.983 23.0343 115.023 23.051C115.065 23.0686 115.11 23.0775 115.155 23.0772ZM115.18 22.5441C115.222 22.5413 115.264 22.5534 115.299 22.5782C115.312 22.5893 115.323 22.6035 115.33 22.6196C115.337 22.6357 115.341 22.6532 115.34 22.6708C115.34 22.6859 115.338 22.7009 115.332 22.7149C115.326 22.7288 115.318 22.7415 115.307 22.7519C115.281 22.775 115.248 22.7888 115.213 22.7912L115.343 22.941H115.241L115.12 22.7922H115.081V22.941H114.996V22.5441H115.18ZM115.081 22.6185V22.7242H115.179C115.198 22.7252 115.217 22.7206 115.233 22.7111C115.239 22.7067 115.245 22.7007 115.248 22.6936C115.252 22.6865 115.253 22.6787 115.253 22.6708C115.253 22.6631 115.252 22.6554 115.248 22.6485C115.245 22.6416 115.239 22.6357 115.233 22.6315C115.217 22.6221 115.198 22.6175 115.179 22.6185H115.081ZM107.967 19.5714C107.967 18.3881 108.745 17.4162 110.017 17.4162C111.232 17.4162 112.052 18.3458 112.052 19.5714C112.052 20.7969 111.232 21.7266 110.017 21.7266C108.745 21.7266 107.967 20.7547 107.967 19.5714ZM58.3292 19.5714V16.2046H56.8592V17.0217C56.6083 16.6994 56.2836 16.4417 55.9123 16.2702C55.541 16.0986 55.1339 16.0182 54.725 16.0356C52.8311 16.0356 51.3471 17.5148 51.3471 19.5714C51.3471 21.628 52.8311 23.1073 54.725 23.1073C55.1339 23.1247 55.541 23.0442 55.9123 22.8727C56.2836 22.7011 56.6083 22.4434 56.8592 22.1212V22.9382H58.3292V19.5714ZM52.8594 19.5714C52.8594 18.3881 53.6368 17.4162 54.9088 17.4162C56.1243 17.4162 56.944 18.3458 56.944 19.5714C56.944 20.7969 56.1243 21.7266 54.9088 21.7266C53.6368 21.7266 52.8594 20.7547 52.8594 19.5714Z"
          fill="#ADADAD"/>
    <path d="M22.0061 5.53925H13.1172V21.4598H22.0061V5.53925Z" fill="#7A7A7A"/>
    <path d="M13.6803 13.5C13.6789 11.9667 14.0275 10.4532 14.6997 9.0741C15.3719 7.69497 16.3502 6.48635 17.5603 5.53972C16.0617 4.36569 14.2619 3.63557 12.3666 3.43283C10.4714 3.23008 8.5571 3.56288 6.84263 4.3932C5.12816 5.22352 3.68267 6.51786 2.67137 8.12826C1.66008 9.73866 1.12378 11.6002 1.12378 13.5C1.12378 15.3998 1.66008 17.2613 2.67137 18.8717C3.68267 20.4821 5.12816 21.7764 6.84263 22.6068C8.5571 23.4371 10.4714 23.7699 12.3666 23.5671C14.2619 23.3644 16.0617 22.6343 17.5603 21.4602C16.3502 20.5136 15.372 19.305 14.6997 17.9258C14.0275 16.5467 13.6789 15.0332 13.6803 13.5Z"
          fill="#5A5A5A"/>
    <path d="M33.9976 13.5C33.9976 15.3998 33.4614 17.2613 32.4502 18.8717C31.4389 20.4821 29.9935 21.7764 28.279 22.6067C26.5646 23.4371 24.6504 23.7699 22.7551 23.5671C20.8599 23.3644 19.0601 22.6343 17.5615 21.4602C18.7706 20.5127 19.7481 19.3038 20.4202 17.9249C21.0923 16.546 21.4415 15.033 21.4415 13.5C21.4415 11.967 21.0923 10.454 20.4202 9.07504C19.7481 7.69613 18.7706 6.48731 17.5615 5.53973C19.0601 4.36569 20.8599 3.63557 22.7551 3.43282C24.6504 3.23008 26.5646 3.5629 28.279 4.39322C29.9935 5.22355 31.4389 6.5179 32.4502 8.1283C33.4614 9.7387 33.9976 11.6002 33.9976 13.5Z"
          fill="#B8B8B8"/>
    <path d="M33.0248 19.7737V19.4478H33.1566V19.3814H32.8208V19.4478H32.9527V19.7737H33.0248ZM33.6768 19.7737V19.3807H33.5738L33.4554 19.651L33.337 19.3807H33.234V19.7737H33.3067V19.4773L33.4177 19.7329H33.4931L33.6041 19.4766V19.7737H33.6768Z"
          fill="#F79E1B"/>
    <path d="M43.6318 7.67529C43.6318 8.39893 43.4663 8.98193 43.1353 9.42432C42.8042 9.8667 42.356 10.0879 41.7905 10.0879C41.2134 10.0879 40.7593 9.90479 40.4282 9.53857V11.8281H39.6152V5.24512H40.3579L40.3975 5.77246C40.7285 5.3623 41.1885 5.15723 41.7773 5.15723C42.3486 5.15723 42.7998 5.37256 43.1309 5.80322C43.4648 6.23389 43.6318 6.83301 43.6318 7.60059V7.67529ZM42.8188 7.58301C42.8188 7.04688 42.7046 6.62354 42.4761 6.31299C42.2476 6.00244 41.9341 5.84717 41.5356 5.84717C41.0435 5.84717 40.6743 6.06543 40.4282 6.50195V8.77393C40.6714 9.20752 41.0435 9.42432 41.5444 9.42432C41.9341 9.42432 42.2432 9.27051 42.4717 8.96289C42.7031 8.65234 42.8188 8.19238 42.8188 7.58301ZM44.4536 7.57861C44.4536 7.11279 44.5444 6.69385 44.7261 6.32178C44.9106 5.94971 45.1655 5.6626 45.4907 5.46045C45.8188 5.2583 46.1924 5.15723 46.6113 5.15723C47.2588 5.15723 47.7817 5.38135 48.1802 5.82959C48.5815 6.27783 48.7822 6.87402 48.7822 7.61816V7.67529C48.7822 8.13818 48.6929 8.5542 48.5142 8.92334C48.3384 9.28955 48.085 9.5752 47.7539 9.78027C47.4258 9.98535 47.0479 10.0879 46.6201 10.0879C45.9756 10.0879 45.4526 9.86377 45.0513 9.41553C44.6528 8.96729 44.4536 8.37402 44.4536 7.63574V7.57861ZM45.271 7.67529C45.271 8.20264 45.3926 8.62598 45.6357 8.94531C45.8818 9.26465 46.21 9.42432 46.6201 9.42432C47.0332 9.42432 47.3613 9.26318 47.6045 8.94092C47.8477 8.61572 47.9692 8.16162 47.9692 7.57861C47.9692 7.05713 47.8447 6.63525 47.5957 6.31299C47.3496 5.98779 47.0215 5.8252 46.6113 5.8252C46.21 5.8252 45.8862 5.98486 45.6401 6.3042C45.394 6.62354 45.271 7.08057 45.271 7.67529ZM54.0117 8.87939L54.9258 5.24512H55.7388L54.3545 10H53.6953L52.5396 6.39648L51.4146 10H50.7554L49.3755 5.24512H50.1841L51.1201 8.80469L52.2275 5.24512H52.8823L54.0117 8.87939ZM58.5425 10.0879C57.8979 10.0879 57.3735 9.87695 56.9692 9.45508C56.5649 9.03027 56.3628 8.46338 56.3628 7.75439V7.60498C56.3628 7.1333 56.4521 6.71289 56.6309 6.34375C56.8125 5.97168 57.0645 5.68164 57.3867 5.47363C57.7119 5.2627 58.0635 5.15723 58.4414 5.15723C59.0596 5.15723 59.54 5.36084 59.8828 5.76807C60.2256 6.17529 60.397 6.7583 60.397 7.51709V7.85547H57.1758C57.1875 8.32422 57.3237 8.70361 57.5845 8.99365C57.8481 9.28076 58.1821 9.42432 58.5864 9.42432C58.8735 9.42432 59.1167 9.36572 59.3159 9.24854C59.5151 9.13135 59.6895 8.97607 59.8389 8.78271L60.3354 9.16943C59.937 9.78174 59.3394 10.0879 58.5425 10.0879ZM58.4414 5.8252C58.1133 5.8252 57.8379 5.94531 57.6152 6.18555C57.3926 6.42285 57.2549 6.75684 57.2021 7.1875H59.584V7.12598C59.5605 6.71289 59.4492 6.39355 59.25 6.16797C59.0508 5.93945 58.7812 5.8252 58.4414 5.8252ZM63.6401 5.97461C63.5171 5.9541 63.3838 5.94385 63.2402 5.94385C62.707 5.94385 62.3452 6.1709 62.1548 6.625V10H61.3418V5.24512H62.1328L62.146 5.79443C62.4126 5.36963 62.7905 5.15723 63.2798 5.15723C63.438 5.15723 63.5581 5.17773 63.6401 5.21875V5.97461ZM66.2769 10.0879C65.6323 10.0879 65.1079 9.87695 64.7036 9.45508C64.2993 9.03027 64.0972 8.46338 64.0972 7.75439V7.60498C64.0972 7.1333 64.1865 6.71289 64.3652 6.34375C64.5469 5.97168 64.7988 5.68164 65.1211 5.47363C65.4463 5.2627 65.7979 5.15723 66.1758 5.15723C66.7939 5.15723 67.2744 5.36084 67.6172 5.76807C67.96 6.17529 68.1313 6.7583 68.1313 7.51709V7.85547H64.9102C64.9219 8.32422 65.0581 8.70361 65.3188 8.99365C65.5825 9.28076 65.9165 9.42432 66.3208 9.42432C66.6079 9.42432 66.8511 9.36572 67.0503 9.24854C67.2495 9.13135 67.4238 8.97607 67.5732 8.78271L68.0698 9.16943C67.6714 9.78174 67.0737 10.0879 66.2769 10.0879ZM66.1758 5.8252C65.8477 5.8252 65.5723 5.94531 65.3496 6.18555C65.127 6.42285 64.9893 6.75684 64.9365 7.1875H67.3184V7.12598C67.2949 6.71289 67.1836 6.39355 66.9844 6.16797C66.7852 5.93945 66.5156 5.8252 66.1758 5.8252ZM68.8784 7.58301C68.8784 6.85352 69.0513 6.26758 69.397 5.8252C69.7427 5.37988 70.1953 5.15723 70.7549 5.15723C71.3115 5.15723 71.7524 5.34766 72.0776 5.72852V3.25H72.8906V10H72.1436L72.104 9.49023C71.7788 9.88867 71.3262 10.0879 70.7461 10.0879C70.1953 10.0879 69.7456 9.8623 69.397 9.41113C69.0513 8.95996 68.8784 8.37109 68.8784 7.64453V7.58301ZM69.6914 7.67529C69.6914 8.21436 69.8027 8.63623 70.0254 8.94092C70.248 9.24561 70.5557 9.39795 70.9482 9.39795C71.4639 9.39795 71.8403 9.1665 72.0776 8.70361V6.51953C71.8345 6.07129 71.4609 5.84717 70.957 5.84717C70.5586 5.84717 70.248 6.00098 70.0254 6.30859C69.8027 6.61621 69.6914 7.07178 69.6914 7.67529ZM80.4141 7.67529C80.4141 8.40186 80.2471 8.98633 79.9131 9.42871C79.5791 9.86816 79.1309 10.0879 78.5684 10.0879C77.9678 10.0879 77.5034 9.87549 77.1753 9.45068L77.1357 10H76.3887V3.25H77.2017V5.76807C77.5298 5.36084 77.9824 5.15723 78.5596 5.15723C79.1367 5.15723 79.5894 5.37549 79.9175 5.81201C80.2485 6.24854 80.4141 6.84619 80.4141 7.60498V7.67529ZM79.6011 7.58301C79.6011 7.0293 79.4941 6.60156 79.2803 6.2998C79.0664 5.99805 78.7588 5.84717 78.3574 5.84717C77.8213 5.84717 77.436 6.09619 77.2017 6.59424V8.65088C77.4507 9.14893 77.8389 9.39795 78.3662 9.39795C78.7559 9.39795 79.0591 9.24707 79.2759 8.94531C79.4927 8.64355 79.6011 8.18945 79.6011 7.58301ZM82.9453 8.80908L84.0527 5.24512H84.9229L83.0112 10.7339C82.7153 11.5249 82.2451 11.9204 81.6006 11.9204L81.4468 11.9072L81.1436 11.8501V11.1909L81.3633 11.2085C81.6387 11.2085 81.8525 11.1528 82.0049 11.0415C82.1602 10.9302 82.2876 10.7266 82.3872 10.4307L82.5674 9.94727L80.8711 5.24512H81.7588L82.9453 8.80908Z"
          fill="#ADADAD"/>
</svg>
